<svg width="50" height="22" viewBox="0 0 50 22" fill="none" xmlns="http://www.w3.org/2000/svg">
<g clip-path="url(#clip0_445_1332)">
<path d="M42.2878 14.4997L40.491 14.1917L38.6853 13.9194C38.0469 13.8163 37.4029 13.7517 36.7568 13.7257C35.0365 13.6809 33.3142 13.6944 31.5941 13.7203L26.4376 13.8332C24.3229 13.8922 12.0434 13.944 9.934 14.0534C8.87794 14.0941 7.8263 14.1715 6.77232 14.2297C5.72223 14.3135 4.66848 14.3777 3.6228 14.4859C2.98163 14.5205 2.33863 14.4979 1.70147 14.4182C1.40746 14.3767 1.12836 14.2629 0.889164 14.0869C0.649974 13.911 0.458175 13.6785 0.330969 13.4102C-0.132403 12.6062 0.104095 11.6597 0.954449 11.341C1.50676 11.1475 2.08904 11.0533 2.67422 11.063C5.31508 11.0251 7.94996 10.8007 10.5592 10.3915C11.2745 10.2246 22.1755 10.1637 22.9084 10.2107C25.1729 10.5209 27.4355 10.257 29.693 10.4385C30.5307 10.5028 31.3704 10.534 32.2104 10.5721C33.0506 10.602 33.8912 10.6363 34.7291 10.7077C37.7173 10.9475 40.6944 11.2995 43.6589 11.7316C44.8338 11.8599 45.9396 12.3508 46.8229 13.136C47.2325 13.5169 47.0919 14.2917 46.5499 14.4007C45.7809 14.5458 45.0005 14.6226 44.2178 14.6303C43.5751 14.6059 42.9342 14.5447 42.2985 14.4471L42.2878 14.4997Z" fill="#7D2CDC"/>
<path d="M35.7998 16.7049C36.9166 16.0545 38.0575 15.4302 39.247 14.8672C39.8786 14.5696 40.5178 14.2846 41.1499 13.9741C42.2532 13.4049 43.4074 12.9402 44.5975 12.5863C45.8478 12.2172 47.1429 12.0218 48.4465 12.0059L47.4502 15.2267C46.3692 14.5901 45.2974 13.9367 44.2417 13.2577C40.5497 10.8796 36.9995 8.28333 33.5508 5.56524C33.0387 5.13442 32.5732 4.65099 32.162 4.12292C31.9774 3.88385 31.8563 3.60189 31.8101 3.30336C31.7639 3.00482 31.7941 2.69945 31.8978 2.41574C32.154 1.52611 33.0151 1.04923 33.8271 1.42777C34.3451 1.68618 34.8184 2.02594 35.229 2.43414C37.1426 4.23592 39.2749 5.79034 41.5758 7.06095C42.2107 7.41444 42.9042 7.73155 43.4117 8.2302C45.0389 9.82069 47.0556 10.8745 48.8686 12.2085C48.9816 12.2909 49.0947 12.3733 49.2088 12.4561L49.3578 12.5646C49.6246 12.7589 49.8203 13.0353 49.9149 13.3514C50.0095 13.6675 49.9978 14.006 49.8815 14.3149C49.7653 14.6237 49.5509 14.8859 49.2713 15.0612C48.9916 15.2365 48.6623 15.3152 48.3336 15.2852C47.011 15.1648 45.6374 15.4538 44.2786 15.8514C41.6146 16.6364 39.0301 18.089 36.5539 19.7128C35.59 20.397 34.4548 20.7996 33.2753 20.8758C32.709 20.8959 32.2571 20.2516 32.5802 19.7853C33.0459 19.119 33.5812 18.504 34.1768 17.9507C34.695 17.5098 35.2461 17.1092 35.8253 16.7521L35.7998 16.7049Z" fill="#7D2CDC"/>
</g>
<defs>
<clipPath id="clip0_445_1332">
<rect width="49.9779" height="20.33" fill="white" transform="translate(0 0.921875)"/>
</clipPath>
</defs>
</svg>
